name 900006 ik
datacolumns 165
datarows 4
range 0.4250000000000005 0.4500000000000006
cursor 1.0 1.0 0.0
keys m_key
wrap
enforce_loops no
enforce_constraints no
calc_derivatives 0.008333
event_color 1.000000 0.000000 1.000000
endheader

time	calcn_r_tx	calcn_r_ty	calcn_r_tz	calcn_r_r1	calcn_r_r2	calcn_r_r3	calcn_l_tx	calcn_l_ty	calcn_l_tz	calcn_l_r1	calcn_l_r2	calcn_l_r3	pelvis_tz	pelvis_tx	pelvis_ty	pelvis_tilt	pelvis_list	pelvis_rotation	hip_flexion_r	hip_adduction_r	hip_rotation_r	knee_angle_r	ankle_angle_r	subtalar_angle_r	mtp_angle_r	hip_flexion_l	hip_adduction_l	hip_rotation_l	knee_angle_l	ankle_angle_l	subtalar_angle_l	mtp_angle_l	lumbar_extension	lumbar_bending	lumbar_rotation	ground_force_px	ground_force_py	ground_force_pz	ground_force_vx	ground_force_vy	ground_force_vz	ground_force_px	ground_force_py	ground_force_pz	ground_force_vx	ground_force_vy	ground_force_vz	ground_torque_x	ground_torque_y	ground_torque_z	ground_torque_x	ground_torque_y	ground_torque_z	 midhip_px	 midhip_py	 midhip_pz	 hip_r_px	 hip_r_py	 hip_r_pz	 hip_l_px	 hip_l_py	 hip_l_pz	 knee_r_px	 knee_r_py	 knee_r_pz	 knee_l_px	 knee_l_py	 knee_l_pz	 ankle_r_px	 ankle_r_py	 ankle_r_pz	 ankle_l_px	 ankle_l_py	 ankle_l_pz	 midasis_px	 midasis_py	 midasis_pz	 asis_r_px	 asis_r_py	 asis_r_pz	 asis_l_px	 asis_l_py	 asis_l_pz	 psis_r_px	 psis_r_py	 psis_r_pz	 psis_l_px	 psis_l_py	 psis_l_pz	 epicondLat_r_px	 epicondLat_r_py	 epicondLat_r_pz	 epicondLat_l_px	 epicondLat_l_py	 epicondLat_l_pz	 epicondMed_r_px	 epicondMed_r_py	 epicondMed_r_pz	 epicondMed_l_px	 epicondMed_l_py	 epicondMed_l_pz	 malleolusLat_r_px	 malleolusLat_r_py	 malleolusLat_r_pz	 malleolusLat_l_px	 malleolusLat_l_py	 malleolusLat_l_pz	 malleolusMedv_r_px	 malleolusMedv_r_py	 malleolusMedv_r_pz	 malleolusMedv_l_px	 malleolusMedv_l_py	 malleolusMedv_l_pz	 sternalnotch_px	 sternalnotch_py	 sternalnotch_pz	 xyphoidprocess_px	 xyphoidprocess_py	 xyphoidprocess_pz	 neck_px	 neck_py	 neck_pz	 toe_r_px	 toe_r_py	 toe_r_pz	 toe_l_px	 toe_l_py	 toe_l_pz	 thighwand_r_px	 thighwand_r_py	 thighwand_r_pz	 thighwand_l_px	 thighwand_l_py	 thighwand_l_pz	 upperleg1_r_px	 upperleg1_r_py	 upperleg1_r_pz	 upperleg1_l_px	 upperleg1_l_py	 upperleg1_l_pz	 upperleg2_r_px	 upperleg2_r_py	 upperleg2_r_pz	 upperleg2_l_px	 upperleg2_l_py	 upperleg2_l_pz	 shankwand_r_px	 shankwand_r_py	 shankwand_r_pz	 shankwand_l_px	 shankwand_l_py	 shankwand_l_pz	 lowerleg1_r_px	 lowerleg1_r_py	 lowerleg1_r_pz	 lowerleg1_l_px	 lowerleg1_l_py	 lowerleg1_l_pz	 subclavicle_r_px	 subclavicle_r_py	 subclavicle_r_pz	 subclavicle_l_px	 subclavicle_l_py	 subclavicle_l_pz	
      0.4250000000000005	      1.5478624255337119	      0.0687534338577422	     -0.1505125877288251	     -2.2679426785072261	     -4.9151459672009921	     -6.2213741516580132	      1.4384630649440799	      0.0335026430075804	     -0.2576284244134990	     -4.7362287189132370	      5.3402994943352322	     -1.1718639163511582	     -0.2552392131362864	      1.6303245579874868	      0.8301826228901412	      2.8548875408058216	     -2.1544833127157328	      1.5009552006636970	     18.6713587032102880	     -0.4691312525407934	     -4.9293060343523001	    -37.8011417758325270	     10.3274738562111090	      0.0000000000000000	      0.0000000000000000	     -4.4000925858253757	      3.5386333943987540	     -5.7395381305255242	     -9.6216561399838465	     10.2273913143481860	      0.0000000000000000	      0.0000000000000000	     -4.4485174733334603	      3.1167177385091329	     -5.4394918142582105	      1.8932364474981995	      0.0000000000000000	     -0.1994691583957476	     -0.0000000000000007	     -0.0000000000000132	     -0.0000000000000020	      1.5833848863572102	      0.0000000000000000	     -0.2733061794982652	    -11.8024712572990960	    427.8118375018842700	      6.9348794298189311	      0.0000000000000000	      0.0000000000000000	      0.0000000000000000	      0.0000000000000000	     -0.4737883997159665	      0.0000000000000000	      1.5960471499775708	      0.7695893227059601	     -0.2568435615094186	      1.5897654576828466	      0.7693972596388689	     -0.1997608261883332	      1.6023289557748297	      0.7697818015198097	     -0.3139261797364312	      1.6752274070097257	      0.4248748974690691	     -0.1613736269934726	      1.5227491554079735	      0.4276087855654051	     -0.2878906710032211	      1.6015734338646617	      0.0865340867362776	     -0.1534582152485767	      1.4867748163172807	      0.0672716682053831	     -0.2624214637122313	      1.6293183033961069	      0.8429239801115100	     -0.2535638308648958	      1.6324048354921170	      0.8489177699563880	     -0.1433714683842275	      1.6262317705325111	      0.8369306119228942	     -0.3637558575141177	      1.4531327746592717	      0.8708254982945882	     -0.2138309089608578	      1.4565792899967602	      0.8673036275438361	     -0.2669986475760764	      1.6939387224169924	      0.4339133496923617	     -0.1017311987203962	      1.5441678433744990	      0.4105278264403039	     -0.3454134907077638	      1.6922361231174605	      0.4236127679714339	     -0.2217110150735762	      1.5536079004137175	      0.4219099980421873	     -0.2295832205942731	      1.5925836031294309	      0.0895214308541704	     -0.1171747273420103	      1.4765841851558508	      0.0663861741927513	     -0.2974592353828013	      1.6050705064900248	      0.0800648322403597	     -0.1864801642606740	      1.4873173172730889	      0.0714420993674078	     -0.2291040353448724	      1.6252682736810120	      1.1946969246780945	     -0.2668130722866371	      1.6351434991337381	      1.0930036428826579	     -0.2686272951109210	      1.5160893499333077	      1.2639910002807544	     -0.2686530216117168	      1.6771702942953537	      0.0649151836246233	     -0.1394023057024874	      1.5724864469062851	      0.0453683141022147	     -0.2756701646553718	      1.7661451666343200	      0.6055041254358021	     -0.1383465218346391	      1.6615706536325232	      0.5540668534887120	     -0.3799938412514952	      1.7025352964299869	      0.6245735122578883	     -0.1055719031521244	      1.6497887550568318	      0.6032748334728387	     -0.3149974089635911	      1.7121224554700998	      0.5672817972492916	     -0.1072942566022028	      1.6368553484857720	      0.5476044447728709	     -0.3033288680836008	      1.7403599015160593	      0.1799898046373402	     -0.1195483964347432	      1.4839118955132518	      0.1604614285448978	     -0.3941005802624699	      1.6640848503202677	      0.1810480369799444	     -0.1449871941911964	      1.4917432813544309	      0.1569242634699846	     -0.3166666650545890	      1.6242972844032482	      1.1950236711287903	     -0.2103427855369651	      1.6314748045219267	      1.1949804554824335	     -0.3167602071988173	
      0.4333333333333339	      1.5695674837836668	      0.0648405874124902	     -0.1521336057929498	     -1.9571194680826520	     -4.9790196341679964	     -4.6298223906522136	      1.4386336007182787	      0.0340287618404986	     -0.2575580423113589	     -4.6903872351882043	      5.4255084943673184	     -1.4681407833905951	     -0.2555537071784685	      1.6366955338305336	      0.8297443297580459	      2.7784963985769013	     -2.1807282643591912	      1.5139834003026116	     19.1441595437126040	     -0.3457816220412363	     -5.1130921207678766	    -36.0982156930832260	      9.8019161160480923	      0.0000000000000000	      0.0000000000000000	     -4.8785358333457340	      3.5268456654062281	     -5.8087339237957050	     -9.4927919148116064	     10.3645158451816360	      0.0000000000000000	      0.0000000000000000	     -4.5302545333614468	      3.2273491914722041	     -5.4560799807374680	      1.8954528781053248	      0.0000000000000000	     -0.2009037587742513	      0.0000000000000011	      0.0000000000000205	      0.0000000000000030	      1.5862150878927812	      0.0000000000000000	     -0.2736969597108407	    -10.8513479628693370	    427.7992803542031800	      7.1158107042638923	      0.0000000000000000	     -0.0000000000000000	      0.0000000000000000	      0.0000000000000000	     -0.4181404222581982	      0.0000000000000000	      1.6020188795369033	      0.7693520554398942	     -0.2570402710627574	      1.5956674953235710	      0.7692384840632359	     -0.1999650211183750	      1.6083704562879158	      0.7694660231456941	     -0.3141154844167546	      1.6827445553989118	      0.4249662640332028	     -0.1620246660227222	      1.5257735077124581	      0.4284277761182348	     -0.2878735371581400	      1.6233478935513548	      0.0838418507567873	     -0.1552561856327074	      1.4872074299134623	      0.0675781512194140	     -0.2624158545850491	      1.6353092676787124	      0.8426755420492312	     -0.2538110913765017	      1.6382617549948437	      0.8488214858982458	     -0.1435833945211976	      1.6323567616465580	      0.8365300948151045	     -0.3640386314288665	      1.4593227498767212	      0.8706299066964560	     -0.2143364341346093	      1.4625398615360292	      0.8670666028212315	     -0.2674066956961922	      1.7022625793884913	      0.4343563057752254	     -0.1024032523001255	      1.5470389628392180	      0.4104271218359682	     -0.3453763061915097	      1.6999935114790448	      0.4238953089839582	     -0.2222026899661019	      1.5568021765601689	      0.4220779896899186	     -0.2300757566747291	      1.6142529739634983	      0.0863720783891316	     -0.1189645810458318	      1.4769584087721448	      0.0667792374917140	     -0.2974385876448903	      1.6272235505543291	      0.0774691783473147	     -0.1882418393241361	      1.4880776990158162	      0.0718170366504152	     -0.2291456677846148	      1.6317962648215223	      1.1942229679321332	     -0.2671050967242022	      1.6414850885630707	      1.0925130491069381	     -0.2689887082286825	      1.5226450311847204	      1.2637707281508910	     -0.2686880800900124	      1.6998605304547891	      0.0641121881663767	     -0.1408539096122602	      1.5726941643254486	      0.0453709683218109	     -0.2756503569776304	      1.7726170592733936	      0.6062865973163427	     -0.1384432269883537	      1.6659896798848366	      0.5531872695711532	     -0.3801891919265800	      1.7087658830744947	      0.6247705842354958	     -0.1058016533898362	      1.6550179589777396	      0.6024102678536389	     -0.3153076189788012	      1.7186944979195287	      0.5675945053032463	     -0.1075607025192382	      1.6414131784550325	      0.5468625540578294	     -0.3037228615590337	      1.7585258696924964	      0.1827042042876300	     -0.1210386746778767	      1.4847981597441071	      0.1607714225186367	     -0.3940763905697319	      1.6823625509758651	      0.1804501290500105	     -0.1463789936257380	      1.4929468411900606	      0.1571797358961163	     -0.3168254276643535	      1.6307352760657290	      1.1945041721948420	     -0.2106860460761861	      1.6380830290661368	      1.1945367059310552	     -0.3169918311212125	
      0.4416666666666672	      1.5922816267314737	      0.0613298548516761	     -0.1543485279170940	     -1.5533332875260712	     -5.2920529575816841	     -3.1808991770162609	      1.4387621414981344	      0.0346861973140504	     -0.2578515783548009	     -4.6555283477195841	      5.2855686234003993	     -1.7032079647796718	     -0.2557476425892942	      1.6430517678458203	      0.8294666105369728	      2.7813386821818145	     -2.1919276463917710	      1.3247515722999397	     19.5413728617060580	     -0.2370918273551803	     -5.4065804600340472	    -34.2165553759888970	      8.9371525254518822	      0.0000000000000000	      0.0000000000000000	     -5.4726409426876037	      3.5625165747612959	     -5.8688965491267799	     -9.3409604943317426	     10.5867388028068450	      0.0000000000000000	      0.0000000000000000	     -4.6057892371527824	      3.3600939068390452	     -5.4623084567124476	      1.8979893821602030	      0.0000000000000000	     -0.2025130013324967	      0.0000000000000025	      0.0000000000000480	      0.0000000000000071	      1.5886723618319971	      0.0000000000000000	     -0.2740410802704170	     -9.6209166640161445	    427.6964428118145600	      7.2222492134354876	      0.0000000000000000	     -0.0000000000000001	      0.0000000000000000	      0.0000000000000000	     -0.3700542863124472	      0.0000000000000000	      1.6079996627539708	      0.7690858629168860	     -0.2572227208276021	      1.6015779964632069	      0.7690303947598778	     -0.2001552431683638	      1.6144215561082695	      0.7691416494489690	     -0.3142902041961691	      1.6893848112375125	      0.4251031863648222	     -0.1627363622152672	      1.5285261063168654	      0.4294641889011217	     -0.2879094942832840	      1.6450279780470334	      0.0815450718417561	     -0.1570873760790663	      1.4876354714696418	      0.0679111340550121	     -0.2624529060414707	      1.6413316720876241	      0.8423850099660603	     -0.2540146651671131	      1.6441476961021424	      0.8486417939820250	     -0.1437525901287464	      1.6385155756150465	      0.8361287885208227	     -0.3642768143572554	      1.4654699690134902	      0.8704500277050771	     -0.2147853328704518	      1.4685734955648826	      0.8667875570658620	     -0.2677863203237489	      1.7102857234812683	      0.4346861675191432	     -0.1031335398856386	      1.5498678168166420	      0.4103690659067848	     -0.3453936030236351	      1.7067623782601717	      0.4242244794296610	     -0.2228142524279351	      1.5596512063312233	      0.4224746631585689	     -0.2305115428247807	      1.6358851987672851	      0.0836054926532269	     -0.1207783780063913	      1.4773038417652580	      0.0672030189091448	     -0.2974531395087539	      1.6492078830641603	      0.0753939695830865	     -0.1900634634665353	      1.4887904850204610	      0.0721357335993635	     -0.2292131882291392	      1.6383196370270419	      1.1937191671089589	     -0.2673788101228241	      1.6478586737637899	      1.0919970114761062	     -0.2693590631825585	      1.5291624313847640	      1.2634889674596241	     -0.2687249774047045	      1.7224955902636887	      0.0636104814074769	     -0.1424131471193257	      1.5729187878383961	      0.0454031242860565	     -0.2756507660201575	      1.7789143630691655	      0.6068855063804816	     -0.1386052580959938	      1.6703605384826201	      0.5522773537723239	     -0.3803816525724687	      1.7149833307064621	      0.6248853806791371	     -0.1060108144851728	      1.6602537759905032	      0.6015708684680511	     -0.3156183334569627	      1.7250209498230107	      0.5677528634266897	     -0.1078647216894006	      1.6458510296419875	      0.5460954904602337	     -0.3040758293360059	      1.7764296606159939	      0.1856996016049878	     -0.1226690945376438	      1.4855862914488565	      0.1611345461163109	     -0.3940654188582414	      1.7005042417895992	      0.1801621364454692	     -0.1477665816370260	      1.4940618239659962	      0.1574661561671407	     -0.3169092578071412	      1.6371859034792531	      1.1939412759846566	     -0.2110387058980465	      1.6446709412636182	      1.1940770552372371	     -0.3171787742042926	
      0.4500000000000006	      1.6143342500007944	      0.0584705106591751	     -0.1565595360778359	     -1.0724116415866121	     -5.4838260413237396	     -2.0053460685129201	      1.4391301131532288	      0.0352201067808536	     -0.2579983269634228	     -4.5820666086880779	      5.2123427050296067	     -1.8440718443815678	     -0.2554620090273670	      1.6489995462707625	      0.8291662419538584	      2.7680245768822247	     -2.1788652384363631	      1.1773774048496601	     19.9157313311665720	     -0.0915104049126085	     -5.6942245719575464	    -32.3015748137590750	      7.7941699635087405	      0.0000000000000000	      0.0000000000000000	     -6.0107466343096840	      3.5856148660876981	     -5.9593173108399311	     -9.1631992456805360	     10.8371551307470180	     -0.0000000000000000	      0.0000000000000000	     -4.6489919633415626	      3.5039327770439623	     -5.4464813338053881	      1.9008309335600968	      0.0000000000000000	     -0.2041895819985791	     -0.0000000000000086	     -0.0000000000001668	     -0.0000000000000247	      1.5908232424312416	      0.0000000000000000	     -0.2743830004115270	     -8.1687198738691382	    427.3053417026267200	      7.2522037283990803	      0.0000000000000000	      0.0000000000000002	      0.0000000000000000	      0.0000000000000000	     -0.3347817053480309	      0.0000000000000000	      1.6139930035113546	      0.7687837434472351	     -0.2573823254466551	      1.6074982449470261	      0.7687682979154179	     -0.2003231154948996	      1.6204879540294517	      0.7687993769111469	     -0.3144415580394493	      1.6952542691694721	      0.4252411711878017	     -0.1635266328109755	      1.5311293496592873	      0.4305596765207088	     -0.2879982428203323	      1.6665786508845537	      0.0796454280926451	     -0.1589207988124576	      1.4880495448591453	      0.0682635090517768	     -0.2625269583200047	      1.6473922534777821	      0.8420468615937131	     -0.2541726540050393	      1.6500683252670039	      0.8483728628600433	     -0.1438821503524062	      1.6447160306218978	      0.8357214515951431	     -0.3644634831069914	      1.4715607054877413	      0.8702849539744555	     -0.2151661913888110	      1.4746948122652821	      0.8664815474528730	     -0.2681347683274623	      1.7179936176022661	      0.4348970826601417	     -0.1039372409981460	      1.5526640704641457	      0.4103526961778987	     -0.3454631059311992	      1.7126559061924109	      0.4245140544766188	     -0.2234402221613737	      1.5622938023644861	      0.4230530560281655	     -0.2307744962877224	      1.6574273381404294	      0.0812352854361602	     -0.1225901988398214	      1.4776149647245602	      0.0676503655394810	     -0.2974982101044320	      1.6709704214243304	      0.0738688446532952	     -0.1919236339626436	      1.4894068917877017	      0.0724006572184242	     -0.2292955608035400	      1.6448335266506031	      1.1931938205187644	     -0.2676221609411821	      1.6542621375176085	      1.0914637744880460	     -0.2697189652894882	      1.5356547378986887	      1.2631416197440453	     -0.2688238583052132	      1.7450165687961823	      0.0634309120560215	     -0.1440612780069416	      1.5731503834791372	      0.0454576312703622	     -0.2756792458169068	      1.7850486056143771	      0.6072848789504665	     -0.1388310345746752	      1.6746731409807754	      0.5513403010353224	     -0.3805706231194350	      1.7211840974528427	      0.6249091495752054	     -0.1062116768341656	      1.6654180104542762	      0.6007734992567637	     -0.3159178543297391	      1.7311288566461753	      0.5677628869627517	     -0.1081840297951691	      1.6501670606875118	      0.5453412035035848	     -0.3043511556173839	      1.7940074376463797	      0.1889555620041797	     -0.1243677403917228	      1.4862873424618621	      0.1615470069015584	     -0.3940671279333385	      1.7184465064194647	      0.1802424859455363	     -0.1491242092850921	      1.4950544259517422	      0.1577826754514728	     -0.3169097096412349	      1.6436444169044429	      1.1933472235011067	     -0.2113756001965110	      1.6512336777256760	      1.1936064536826223	     -0.3173222110823934	
